<svg width="186" height="167" viewBox="0 0 186 167" fill="none" xmlns="http://www.w3.org/2000/svg">
<path d="M132.082 91.6423C131.763 91.323 131.763 90.6844 131.763 90.3651C131.763 90.0458 131.763 89.7265 131.763 89.4072C131.444 87.172 131.444 85.2561 131.444 83.0209C131.444 81.1051 131.444 79.5085 131.125 77.5926C131.125 76.6347 130.487 75.6768 130.168 74.3995C130.168 74.0802 129.849 73.4416 129.849 73.1223C129.849 72.1643 129.849 70.8871 129.53 69.9291C129.211 68.6519 129.211 67.3747 128.254 66.0974L127.935 66.4167C127.935 67.0553 127.935 67.3746 127.935 68.0133C127.935 68.3326 127.935 68.9712 127.935 69.2905C127.935 70.5678 127.935 71.5257 128.254 72.8029C128.573 73.7609 128.892 74.7188 129.211 75.9961C129.53 76.954 129.53 77.5926 129.53 78.5506C129.53 80.7857 129.849 83.0209 129.53 85.2561C129.53 85.8947 129.53 86.5333 129.211 87.172C129.211 87.4913 129.211 87.8106 129.211 88.1299C128.892 89.4072 129.211 90.6844 129.53 92.281C129.849 93.2389 130.168 94.1968 130.487 95.1548C130.806 96.1127 131.444 97.0706 131.444 98.0286C131.444 98.6672 131.763 98.9865 132.082 99.6251C132.402 99.9444 132.402 100.583 132.402 100.902C132.721 101.541 132.721 102.18 133.04 102.499C133.359 103.776 133.359 104.734 133.04 106.011C132.721 107.289 131.763 107.927 130.806 108.566C130.487 108.885 130.168 109.204 129.849 109.524C129.211 110.162 129.211 111.12 128.573 111.759C127.935 112.398 127.616 112.717 126.978 113.356C126.659 113.675 126.659 113.675 126.34 113.994C125.702 114.952 125.064 115.591 124.107 115.91C123.468 116.229 123.149 116.229 122.511 115.91C122.192 115.591 121.873 115.591 121.235 115.591C120.278 115.271 119.002 114.952 118.045 114.952C117.407 114.952 116.45 114.952 115.811 114.952C114.854 115.271 113.897 115.271 113.259 116.229C112.621 116.868 112.621 116.868 111.664 116.549C111.664 116.229 111.664 116.229 111.664 115.91C111.664 114.952 111.664 113.994 111.664 113.036V112.717C111.664 112.398 111.664 112.078 111.345 111.759C111.026 111.759 110.707 112.078 110.388 112.398C109.431 114.313 109.431 116.229 109.431 118.465C109.431 119.103 109.431 119.742 109.431 120.38C109.431 121.977 109.431 123.574 109.75 125.489C110.069 126.767 110.069 128.044 109.431 129.321C109.431 129.64 108.793 129.96 108.474 130.279C107.835 130.598 107.197 130.918 106.559 131.237C106.24 131.556 105.602 131.556 104.964 131.556C104.326 131.556 103.688 131.876 103.369 131.876C102.093 132.195 101.136 132.514 99.8595 132.514C98.9024 132.514 97.9453 132.514 96.9881 133.153C96.3501 133.472 95.712 133.472 94.7549 133.791C93.7978 134.111 92.8406 134.43 91.8835 134.749C91.2454 135.069 90.6074 135.069 89.9693 135.069C88.3741 135.069 86.7789 135.069 85.1837 135.069C84.8646 135.069 84.5456 135.069 84.2266 134.749C83.9075 134.43 83.5885 134.43 82.9504 134.749C82.9504 135.069 82.9504 135.069 83.2694 135.069C83.5885 135.707 83.5885 136.346 83.5885 136.985C83.5885 137.623 83.5885 138.262 83.5885 138.9C83.5885 139.539 83.2694 140.178 82.6314 140.497C82.3123 140.816 81.6742 140.816 81.3552 140.497C80.7171 140.178 80.0791 139.858 80.3981 138.9C80.3981 138.262 80.3981 137.623 80.7171 136.985C80.7171 136.665 80.7171 136.665 81.0362 136.346C81.0362 135.707 81.3552 135.069 81.9933 134.749C81.9933 134.749 81.9933 134.749 82.3123 134.43C81.9933 134.43 81.9933 134.111 81.6743 134.111C81.0362 133.791 80.0791 133.791 79.441 133.791C78.8029 133.472 78.1648 133.153 77.5267 133.153C76.8887 132.834 75.9315 132.834 75.2935 132.514C74.3363 132.195 73.0602 132.195 72.1031 131.876C70.8269 131.556 69.8698 130.918 69.5507 129.64V129.321C68.5936 128.044 68.5936 127.086 69.5507 125.809C69.8698 125.17 70.1888 124.531 70.1888 123.893C70.1888 122.616 69.8698 121.658 69.8698 120.7C69.5507 119.742 69.5508 118.465 69.2317 117.507C68.9127 115.91 67.9556 114.313 66.9984 113.036C66.9984 112.717 66.6794 112.717 66.6794 112.398L66.3604 112.078L66.0413 112.398V112.717C66.3604 113.356 66.9984 114.313 66.9984 114.952C67.3175 115.91 67.6365 117.187 67.6365 118.465C67.6365 118.784 67.3175 119.103 66.9984 119.103C66.0413 119.422 65.4032 118.784 65.0842 118.145C64.4461 117.507 63.808 117.187 63.17 116.868C62.5319 116.549 61.5748 116.549 60.9367 116.549C60.2986 116.549 59.9796 116.549 59.3415 116.868C58.7034 116.868 58.3844 116.868 57.7463 116.868C57.1082 116.868 56.4701 116.868 55.8321 117.187C54.8749 117.826 53.9178 117.507 52.9607 116.549C52.0036 115.91 51.3655 114.952 50.7274 113.994C50.4084 113.675 50.4084 113.036 49.7703 112.398C49.4513 112.078 49.1322 111.759 48.8132 111.44C48.1751 110.801 47.537 109.843 46.8989 108.885C46.5799 107.927 45.9418 107.289 45.3037 106.65C44.6657 106.011 44.3466 105.053 44.9847 104.095C45.3037 103.138 45.9418 102.18 46.2609 101.541C46.5799 100.583 46.8989 99.9444 47.218 98.9865C47.537 98.3479 47.537 97.7093 47.8561 97.0706C48.8132 94.5161 49.1322 91.9617 48.4941 89.4072C48.1751 88.1299 47.8561 87.172 47.8561 85.8947C47.8561 84.6175 47.537 83.6595 47.8561 82.3823C47.8561 81.4244 48.1751 80.7857 48.1751 79.8278C48.1751 79.1892 48.4941 78.8699 48.4941 78.2313C48.4941 77.9119 48.4941 77.5926 48.8132 76.954C49.1322 76.6347 48.8132 76.3154 49.1322 75.9961C49.1322 75.3574 49.4513 75.0381 49.4513 74.3995C49.4513 74.0802 49.4513 74.0802 49.7703 73.7609C49.7703 73.1223 50.0893 72.4836 50.0893 71.845C50.4084 70.5678 50.4084 69.2905 50.0893 68.3326C50.0893 68.0133 49.7703 67.694 49.7703 67.0553C49.7703 66.736 49.7703 66.4167 49.4513 66.4167C49.1322 67.0553 49.1322 67.694 49.1322 68.0133C49.1322 69.2905 48.8132 70.5678 48.4941 71.845C48.1751 73.1223 47.537 74.3995 47.537 75.9961C47.537 76.954 46.8989 77.9119 46.8989 79.1892C46.5799 80.1471 46.5799 81.1051 46.2609 82.063C45.9418 84.2982 45.9418 86.5334 46.5799 88.4492C46.8989 89.4072 47.218 90.3651 47.218 91.323C47.218 91.9617 47.218 91.9617 46.5799 91.6423C46.2609 91.6423 45.9418 91.6423 45.9418 91.323C45.6228 91.323 45.6228 91.0037 45.3037 90.6844C44.9847 90.3651 44.6657 89.7265 44.3466 89.4072C43.7085 88.1299 43.3895 86.8527 43.0705 85.5754C43.0705 84.9368 43.0705 84.6175 42.7514 83.9789C42.7514 83.3402 42.4324 83.0209 42.4324 82.7016V82.3823C42.1134 80.4664 41.7943 78.5506 41.4753 76.954C41.4753 75.9961 41.1562 75.0381 41.1562 74.0802C41.1562 73.4416 41.1562 72.803 41.1562 72.1643C41.1562 71.5257 41.1562 71.2064 40.8372 70.5678C40.5182 70.2485 40.5182 69.6098 40.5182 69.2905C40.1991 68.3326 40.1991 67.3747 40.1991 66.0974C40.1991 65.1395 40.1991 64.5008 39.8801 63.5429C39.8801 62.9043 39.561 62.585 39.561 61.9464C39.561 61.3077 39.561 60.9884 39.561 60.3498C39.561 60.0305 39.561 59.7112 39.561 59.3919C39.561 58.1146 39.561 56.8374 39.8801 55.2408C40.1991 53.9636 40.5182 52.6863 40.5182 51.4091C40.5182 50.7704 40.8372 50.4511 41.1562 49.8125C41.4753 49.1739 41.7943 48.5353 41.7943 47.8966C42.1134 46.9387 42.4324 46.3001 42.7514 45.6615C43.0705 45.0228 43.0705 44.7035 43.3895 44.0649C43.3895 43.7456 44.0276 43.7456 44.0276 43.7456C44.3466 43.7456 44.6657 43.7456 44.6657 44.3842C44.6657 44.7035 44.6657 45.0228 44.6657 45.3421C44.6657 45.6615 44.6657 46.3001 44.6657 46.6194C44.3466 47.8966 44.9847 48.8546 45.6228 49.8125C45.9418 50.1318 46.2609 50.4511 46.8989 51.0898C47.8561 51.7284 48.4941 52.6863 49.4513 53.0056C50.0893 53.6443 51.0465 53.9636 51.6845 54.2829C52.3226 54.6022 52.9607 55.2408 53.9178 55.5601C54.5559 55.8794 55.513 56.1987 56.1511 56.5181C56.7892 56.8374 57.4272 57.1567 58.0653 57.476C58.3844 57.476 58.7034 57.7953 59.0224 57.7953C60.9367 58.1146 62.5319 58.4339 64.4461 58.7532C66.0413 59.0725 67.9555 59.3919 69.5507 59.7112C70.5079 60.0305 71.465 60.0305 72.4221 60.0305C72.7411 60.0305 73.0602 60.3498 73.3792 60.3498C73.6983 60.3498 73.6983 60.3498 74.0173 60.6691C76.2506 60.9884 78.1648 61.3077 80.3981 61.3077C82.3123 61.3077 83.9075 61.3077 85.8218 61.3077C88.6931 61.3077 91.5645 60.9884 94.1168 60.6691H94.4358C96.6691 60.0305 98.9024 60.3498 100.817 60.6691C101.774 60.6691 102.412 60.9884 103.369 60.6691C104.007 60.3498 104.645 60.3498 105.283 60.3498C107.197 60.0305 108.793 60.0305 110.707 59.7112C111.345 59.7112 112.302 59.7112 112.94 59.0725C112.94 59.0725 112.94 59.0725 113.259 59.0725C114.854 58.7532 116.131 58.4339 117.726 58.1146C118.683 57.7953 119.321 57.7953 120.278 57.476C121.554 56.8374 122.83 56.5181 123.787 55.8794C124.426 55.5601 125.383 55.2408 126.34 54.9215C126.978 54.6022 127.616 54.6022 127.935 53.9636C128.573 53.0056 129.53 52.367 130.168 51.4091C130.806 50.1318 131.444 49.1739 131.125 47.8966C131.125 46.9387 131.125 45.6615 130.806 44.7035C130.806 44.3842 130.806 44.0649 130.487 44.0649C130.168 43.4263 130.487 42.7877 131.125 42.7877C132.082 42.4683 132.721 42.4683 133.359 43.4263C133.359 43.7456 133.678 43.7456 133.678 44.0649C133.997 44.7035 134.316 45.3421 134.316 45.9808C134.635 47.258 134.954 48.5353 135.273 49.8125C135.592 50.7704 135.911 51.7284 136.23 52.367C136.549 54.2829 137.187 56.1987 137.187 58.1146C137.187 60.3498 137.187 62.585 137.187 64.8202C137.187 66.4167 137.187 67.694 136.868 68.9712C136.549 70.5678 136.549 72.1643 136.23 73.7609C135.911 75.3574 135.592 76.954 134.954 78.5506C134.635 79.8278 133.997 81.1051 133.997 82.063C133.678 83.0209 133.678 83.9789 133.678 84.9368C133.678 85.5754 133.359 85.8947 133.359 86.5334C133.359 86.8527 133.359 87.172 133.04 87.4913C133.04 88.4492 132.721 89.4072 132.402 90.3651C133.04 91.323 132.721 91.6423 132.082 91.6423ZM84.5456 87.172C84.2266 86.5333 83.9075 86.214 83.9075 85.5754C83.2694 84.2982 82.6314 83.0209 81.6743 82.063C81.3552 81.7437 80.7171 81.7437 80.3981 81.1051C79.76 80.4664 78.8029 80.1471 77.8458 80.1471C77.5267 80.1471 76.8887 80.1471 76.5696 80.1471C74.9744 80.1471 73.3792 80.1471 71.784 79.8278C70.8269 79.5085 69.8698 79.5085 68.9127 79.8278C67.3175 79.8278 65.7223 80.1471 64.1271 80.4664C63.808 80.4664 63.17 80.7857 62.8509 80.7857C61.8938 81.4244 60.9367 81.7437 59.9796 82.3823C59.3415 82.7016 59.0224 83.0209 58.3844 83.3402C57.7463 83.9789 57.1082 84.9368 56.4701 85.5754C55.513 86.8527 54.8749 87.8106 54.2369 89.4072C54.2369 89.4072 54.2369 89.7265 53.9178 89.7265C53.5988 90.0458 53.5988 90.3651 53.5988 91.0037C53.5988 91.9617 53.5988 92.9196 53.5988 93.5582C53.5988 94.5161 53.9178 95.1548 54.2369 96.1127C54.5559 97.0706 54.8749 98.3479 54.8749 99.3058C54.8749 99.9444 55.194 100.583 55.513 101.222C55.513 101.541 55.8321 101.86 56.1511 101.86C56.7892 102.18 57.4272 102.499 58.0653 102.818C59.3415 103.457 60.6176 104.095 62.2128 103.776C62.8509 103.776 63.489 103.776 63.808 103.776C64.4461 103.776 64.7652 103.776 65.4032 103.776C66.0413 103.776 66.6794 103.776 67.3175 103.776C67.9556 103.776 68.5936 103.776 69.2317 103.776C69.5508 103.776 69.8698 103.776 69.8698 103.776C70.1888 103.776 70.5079 103.457 70.8269 103.138C71.465 102.818 72.1031 102.499 72.7411 101.86C73.6983 101.222 74.9744 100.583 76.2506 99.9444C76.5696 99.9444 76.5696 99.6251 76.8887 99.6251C78.1648 98.6672 79.441 97.3899 81.0362 96.432C81.6742 95.7934 81.9933 95.1548 82.6314 94.1968C82.9504 93.8775 83.2694 93.2389 83.5885 92.9196C84.2266 92.281 84.5456 91.6423 84.5456 91.0037C84.8646 90.0458 84.8646 89.0878 85.1837 88.1299C85.1837 87.8106 85.1837 87.8106 85.5027 87.4913C85.8218 87.172 86.4598 86.5334 86.7789 86.214C87.736 85.5754 88.055 85.5754 88.6931 86.214C89.6502 86.8527 89.9693 86.8527 90.6074 85.8947C90.9264 85.5754 90.9264 85.5754 91.2454 85.2561C91.5645 85.5754 91.8835 85.5754 91.8835 85.8947C92.8406 86.8527 93.7977 87.4913 95.0739 88.1299C95.3929 88.4492 95.712 88.4492 95.712 89.0878C95.712 90.0458 95.712 91.0037 96.031 91.9616C96.031 93.2389 96.6691 94.5161 97.3072 95.7934C97.9453 96.432 98.5833 96.7513 99.2214 97.3899C100.179 98.0286 101.136 98.9865 101.774 99.9444C102.093 100.264 102.093 100.583 102.412 100.583C103.369 101.222 104.007 101.86 104.645 102.818C104.964 103.457 105.602 103.457 106.24 103.776C107.197 104.095 107.835 104.095 108.793 104.415C109.431 104.415 109.75 104.734 110.388 104.734C112.302 104.734 114.216 105.053 116.45 105.053C117.726 105.053 119.002 104.734 120.278 104.415C121.554 103.776 122.511 103.138 123.787 102.499C124.426 102.18 125.064 101.86 125.702 101.541C126.021 101.222 126.34 101.222 126.659 100.902C126.978 100.583 126.978 99.9444 127.297 99.6251C127.935 98.9865 127.935 98.6672 127.935 98.0286C127.935 96.7513 127.616 95.1548 127.297 93.8775C127.297 93.2389 127.297 92.9196 126.978 92.281C126.34 91.323 126.34 90.3651 126.021 89.4072C125.383 88.4492 125.064 87.8106 124.745 86.8527C124.426 86.5334 124.426 86.214 124.107 85.8947C123.468 84.2982 122.511 83.0209 120.597 82.3823C120.597 82.3823 120.278 82.3823 120.278 82.063C119.64 81.7437 119.002 81.1051 118.045 81.1051C118.045 81.1051 117.726 81.1051 117.726 80.7857C116.769 80.4664 115.811 79.8278 114.854 79.8278C113.897 79.8278 112.94 79.5085 111.664 79.5085C110.707 79.5085 109.75 79.5085 109.112 79.5085C107.835 79.5085 106.559 80.1471 104.964 80.4664C104.326 80.4664 104.007 80.7857 103.369 80.4664C102.412 79.8278 101.136 79.1892 100.179 78.5506C99.2214 77.9119 97.9453 77.5926 96.6691 77.5926C96.3501 77.5926 95.712 77.5926 95.3929 77.5926C94.7549 76.954 94.4358 75.9961 94.7549 75.0381C94.7549 74.7188 94.7549 74.3995 94.7549 74.0802C94.4358 73.1223 93.4787 72.1643 92.5216 71.5257C91.8835 71.2064 91.5645 70.8871 90.9264 70.2485C90.6074 69.9291 90.2883 69.6098 89.6502 69.9291C89.9693 70.5678 90.2883 71.2064 90.9264 71.845C91.2454 72.4836 91.8835 72.8029 92.5216 73.4416C93.4787 74.0802 93.4787 75.0381 92.8406 75.9961C91.8835 75.6768 90.9264 75.3574 89.9693 75.0381C87.736 74.3995 86.1408 73.1223 85.5027 70.8871C85.1837 69.9291 84.5456 68.9712 83.5885 68.6519C82.9504 68.3326 81.9933 68.3326 81.3552 68.3326C81.0362 68.3326 81.0362 68.6519 81.0362 68.6519C81.3552 68.6519 81.3552 68.9712 81.6743 68.9712C82.3123 68.9712 82.6314 69.2905 83.2694 69.2905C83.9075 69.6098 84.5456 69.9291 84.5456 70.8871C84.8646 71.845 85.1837 72.803 85.8218 73.7609C86.7789 75.0381 88.3741 75.9961 89.9693 76.6347C91.2454 76.954 92.5216 77.2733 93.4787 77.9119C93.7977 78.2312 93.7977 78.2313 93.7977 78.5506V78.8699C93.7977 79.5085 93.7978 79.5085 94.4358 79.5085C94.7549 79.5085 95.0739 79.5085 95.3929 79.5085C96.6691 79.1892 97.9453 79.5085 98.9024 79.8278C99.8595 80.1471 100.498 80.7857 100.817 81.4244C99.8595 82.3823 98.2643 83.0209 97.9453 84.2982C97.9453 84.6175 97.6262 84.6175 97.6262 84.9368C96.031 85.2561 95.712 85.5754 95.712 86.214C95.3929 86.214 95.0739 85.8947 95.0739 85.8947C94.1168 85.5754 93.4787 84.9368 92.5216 84.2982C91.5645 83.6595 90.6074 83.6595 89.9693 84.9368C89.3312 85.8947 89.3312 85.8947 88.6931 85.5754C88.6931 85.5754 88.3741 85.5754 88.3741 85.2561C87.736 84.9368 87.417 84.9368 86.7789 85.5754C85.8218 86.214 85.1837 86.5333 84.5456 87.172ZM89.9693 100.264C89.6502 100.583 89.6502 100.583 89.3312 100.902C89.0122 101.222 89.0122 101.86 88.6931 102.18C88.055 102.818 87.736 103.776 87.417 104.734C87.0979 105.373 86.7789 106.331 86.4598 106.969C85.8218 108.247 85.5027 109.204 84.8646 110.162C84.5456 110.482 84.5456 110.801 84.2266 111.44C83.5885 112.717 83.2694 113.994 82.6314 115.271C82.6314 115.271 82.6314 115.591 82.3123 115.591C81.6742 116.229 81.9933 117.187 81.9933 118.145C82.3123 119.103 82.9504 120.38 83.2694 121.338C83.5885 121.977 83.9075 122.296 84.2266 122.296C85.1837 122.296 85.8218 122.296 86.7789 122.296C87.0979 122.296 87.417 121.977 87.736 121.658C88.055 121.019 88.3741 120.38 88.3741 119.422C88.3741 118.465 88.3741 117.187 89.0122 116.229C89.0122 115.91 89.3312 115.91 89.6502 115.591C90.2883 115.591 90.9264 115.591 90.9264 116.549C90.9264 117.187 90.9264 117.826 91.2454 118.145C91.2454 118.465 91.2454 119.103 91.2454 119.422C91.2454 119.742 91.2454 120.061 91.5645 120.061C91.8835 120.38 92.2026 120.7 92.5216 121.019C92.8406 121.338 93.1597 121.658 93.4787 121.658C94.1168 122.296 94.4358 121.658 94.7549 121.338C94.7549 121.338 95.0739 121.338 95.0739 121.019C95.3929 121.019 95.712 120.7 95.712 120.7C96.3501 120.38 96.6691 119.422 96.9881 119.103C97.6262 118.145 97.6262 117.187 97.6262 116.229C97.6262 115.591 97.6262 114.633 97.6262 113.994C97.6262 113.036 97.6262 111.759 96.9881 110.801C96.3501 109.843 95.712 108.566 94.7549 107.608C93.7978 106.65 93.1597 105.692 92.5216 104.415C92.2026 103.776 91.8835 103.138 91.5645 102.499C91.2454 101.86 90.9264 101.541 90.6074 100.902C90.6074 101.541 90.2883 100.902 89.9693 100.264ZM86.4598 129.002C86.4598 128.363 86.7789 128.044 86.7789 127.725C87.0979 127.086 87.0979 126.447 87.0979 125.809C87.0979 125.489 87.0979 125.17 86.7789 125.17C86.4598 125.17 86.1408 124.851 86.1408 125.17C85.8218 125.489 85.5027 125.809 85.5027 126.128C85.5027 126.767 85.5027 127.405 85.5027 128.044C85.5027 128.682 85.8218 129.002 86.4598 129.002ZM81.3552 126.767C81.3552 126.447 81.3552 125.809 81.3552 125.489C81.3552 125.17 81.3552 125.17 81.0362 124.851C80.7171 124.851 80.3981 124.851 80.3981 125.17C80.3981 125.489 80.3981 125.809 80.3981 126.128C80.3981 126.447 80.3981 126.767 80.3981 127.086C80.0791 127.725 80.3981 128.363 80.3981 128.682C80.3981 129.002 80.7171 129.002 81.0362 129.002C81.3552 129.002 81.3552 128.682 81.3552 128.363C81.3552 128.044 81.3552 127.405 81.3552 126.767ZM91.5645 129.64C91.8835 128.044 92.2025 126.767 92.2025 125.489C91.5645 125.17 91.2454 125.489 91.2454 125.809C91.2454 126.767 91.2454 127.725 91.2454 128.682C91.2454 129.002 91.2454 129.321 91.5645 129.64ZM76.5696 125.489C75.9315 125.489 75.6125 125.489 75.6125 125.809C75.6125 126.767 75.6125 127.725 75.6125 128.363C75.6125 128.682 75.9315 128.682 75.9315 129.002C76.2506 127.725 76.5696 126.767 76.5696 125.489ZM101.136 125.17C100.817 125.489 100.817 125.809 100.817 126.128C100.817 126.767 101.136 127.086 101.136 127.725C101.136 128.044 101.136 128.363 101.136 128.682C101.136 128.682 101.136 128.682 101.455 128.682C101.774 127.725 102.093 126.767 101.774 125.809C101.774 125.489 101.455 125.17 101.136 125.17ZM96.6691 124.851C96.3501 125.17 96.3501 125.489 96.6691 125.809C96.6691 126.128 96.9881 126.447 96.9881 126.767C97.3072 127.086 97.3072 127.725 97.6262 128.044C97.9453 127.086 97.9453 126.128 97.3072 125.17C96.9881 124.851 96.6691 124.851 96.6691 124.851ZM104.007 124.851C104.326 125.809 104.326 126.447 104.645 127.405C104.645 126.767 104.645 125.489 104.007 124.851Z" fill="white"/>
<path d="M58.0652 40.5526C58.3842 40.5526 58.7033 40.872 59.3414 40.872C59.6604 40.872 59.6604 40.872 59.9794 40.872C61.2556 40.872 62.8508 40.872 64.1269 40.5526C64.446 40.5526 64.765 40.2333 65.0841 39.914C65.4031 39.914 65.4031 39.5947 65.7221 39.5947C66.3602 39.5947 66.3602 39.2754 66.6793 38.9561C67.3173 38.3175 67.9554 37.3595 68.5935 36.7209C68.9125 36.4016 69.2316 36.0823 69.2316 35.4437C69.8697 34.1664 70.1887 33.2085 70.8268 31.9312C71.1458 30.9733 71.4649 29.6961 71.7839 28.4188C71.7839 28.0995 71.7839 27.4609 71.7839 27.1416C71.7839 26.5029 71.7839 25.8643 71.4649 25.2257C71.1458 23.9484 71.1458 22.3519 70.8268 21.0746C70.5077 19.1588 69.5506 17.5622 68.2745 16.285C67.9554 15.6463 67.3173 15.327 66.9983 14.6884C66.6793 14.0498 66.3602 13.7305 65.7221 13.7305C65.0841 13.4112 64.446 13.0918 63.4889 12.7725C60.9366 12.1339 58.3842 11.8146 55.8319 12.4532C55.1938 12.7725 54.2367 12.7725 53.5986 13.0918C52.6415 13.4112 51.6844 14.0498 51.0463 14.6884C49.7702 15.6463 48.8131 16.6043 47.5369 17.5622C46.5798 18.2008 45.9417 19.4781 45.6227 20.436C45.6227 20.7553 45.3036 21.3939 45.3036 21.7133C44.9846 22.3519 44.9846 22.6712 45.3036 23.3098C45.6227 24.5871 46.5798 25.2257 47.8559 25.8643C49.1321 26.5029 50.4083 26.5029 51.6844 26.5029C52.3225 26.5029 53.2796 26.5029 53.9177 27.1416C53.5986 27.4609 53.2796 28.0995 52.9606 28.4188H52.6415C51.6844 28.4188 50.4083 28.7381 49.4511 28.7381C48.8131 28.7381 47.8559 28.4188 47.2179 28.4188C46.5798 28.4188 45.9417 28.0995 45.6227 27.7802C44.9846 27.4609 44.3465 27.1416 43.7084 26.5029C43.0703 25.8643 42.7513 25.2257 42.1132 24.2678C41.7942 23.3098 41.7942 22.0326 41.7942 21.0746V20.7553C41.7942 20.436 42.1132 20.436 42.1132 20.1167C42.1132 19.4781 42.4323 19.1588 42.4323 18.8395C42.7513 18.5201 42.7513 17.8815 43.0703 17.5622C44.0275 16.6043 44.6655 15.9657 44.9846 15.327C45.6227 14.6884 46.2607 14.0498 46.8988 13.7305C47.8559 13.0918 48.8131 12.1339 49.7702 12.1339C50.0892 12.1339 50.0892 11.8146 50.4083 11.8146C50.7273 11.4953 51.3654 11.4953 51.6844 11.176C52.0035 11.176 52.6415 11.176 52.6415 10.8567C53.9177 10.218 55.1938 10.218 56.151 9.89873C57.4271 9.89873 58.0652 9.57942 58.7033 9.57942C59.3414 9.57942 59.9794 9.2601 60.9366 9.57942C62.2127 9.57942 63.1698 9.57942 64.1269 9.89873H64.446C64.765 9.89873 64.765 10.218 65.0841 10.218C65.4031 10.218 65.7221 10.218 65.7221 10.218C66.0412 10.218 66.0412 10.218 66.3602 10.5374C66.9983 10.8567 67.6364 10.8567 67.9554 11.176C68.2745 11.4953 68.5935 11.4953 68.9125 11.8146C69.2316 12.1339 69.8697 12.1339 70.1887 12.4532C70.5077 12.7725 70.8268 12.7725 70.8268 13.0918C71.1458 13.4112 71.1458 13.4112 71.4649 13.7305C72.1029 14.3691 72.422 15.0077 73.0601 15.327C73.6981 15.9657 73.6981 16.6043 74.3362 17.2429C74.3362 17.2429 74.3362 17.2429 74.3362 17.5622C74.3362 18.5201 74.9743 19.1588 75.2933 20.1167C75.2933 20.436 75.6124 21.0746 75.6124 21.3939C75.6124 22.3519 75.9314 23.6291 75.9314 24.5871C75.9314 25.545 75.9314 26.5029 75.9314 27.1416V27.4609C75.6124 28.0995 75.2933 29.0574 75.2933 29.6961C75.2933 30.3347 74.6553 30.9733 74.9743 31.6119C74.6553 32.5699 74.0172 33.5278 73.6981 34.4857C73.0601 35.4437 72.422 36.4016 72.1029 37.3595C71.7839 37.6788 71.4649 37.9982 71.1458 38.3175C70.8268 38.6368 70.5077 38.9561 70.1887 39.2754C69.5506 39.914 68.9125 40.5526 67.9554 41.1913C66.9983 42.1492 65.4031 42.1492 64.1269 42.4685C62.5318 42.7878 60.9366 43.1071 59.0223 42.7878C58.0652 42.7878 57.4271 42.7878 56.789 43.7458C56.151 44.3844 55.8319 45.023 55.1938 45.6616C54.5558 46.3003 54.5558 47.2582 55.1938 48.2161C55.8319 49.1741 56.47 49.8127 57.4271 50.4513C57.7462 50.7706 58.0652 51.0899 58.3842 51.0899C59.6604 52.0479 60.9366 52.3672 62.2127 52.6865C64.1269 53.0058 65.7221 53.6444 67.6364 53.9637C69.2316 54.283 70.5077 54.6024 72.1029 54.6024C72.741 54.6024 73.0601 54.6024 73.6981 54.9217C74.9743 55.241 76.2504 55.241 77.5266 55.5603C78.4837 55.8796 79.7599 55.5603 80.717 55.5603C81.6741 55.5603 82.6312 55.5603 83.5884 55.8796C83.9074 55.8796 84.2264 55.8796 84.8645 55.8796C86.4597 55.8796 88.3739 55.5603 89.9691 55.8796C90.9263 55.8796 91.8834 55.8796 92.8405 55.5603C93.7976 55.5603 94.4357 55.5603 95.3928 55.5603C96.669 55.5603 97.9451 55.241 99.2213 55.241C100.497 55.241 102.093 54.9217 103.369 54.9217C104.964 54.9217 106.24 54.6024 107.835 54.6024C109.431 54.2831 111.026 53.9637 112.94 53.9637C114.854 53.9637 116.449 53.3251 118.364 53.0058C119.002 52.6865 119.959 52.6865 120.597 52.3672C120.916 52.3672 121.235 52.0479 121.554 51.7286C121.235 51.4092 120.916 51.0899 120.597 50.7706C119.002 50.132 117.407 49.4934 115.492 49.1741C114.535 49.1741 113.897 48.5354 112.94 48.2161C111.983 47.8968 110.707 47.5775 109.75 47.2582C108.154 46.6196 106.24 46.6196 104.645 46.6196C104.007 46.6196 103.688 46.3003 103.05 46.3003C101.774 45.9809 100.497 45.9809 99.5403 45.9809C98.9023 45.9809 97.9451 45.9809 97.3071 45.6616C96.0309 45.6616 95.0738 45.6616 93.7976 45.3423C93.4786 45.3423 93.4786 45.3423 93.1595 45.3423C92.5215 45.3423 91.8834 45.3423 91.2453 45.3423C90.2882 45.3423 89.6501 45.3423 88.693 45.3423C87.7359 45.023 86.7787 45.023 86.1407 45.3423C84.8645 45.3423 83.2693 45.3423 81.9932 45.3423C81.6741 45.3423 81.3551 45.3423 81.036 45.3423C79.1218 45.6616 77.2076 45.6616 75.2933 46.3003C74.6553 46.6196 74.0172 46.6196 73.0601 46.6196C71.7839 46.9389 70.8268 47.2582 69.5506 47.5775C69.2316 47.5775 68.9125 47.5775 68.9125 47.8968C68.5935 47.8968 68.5935 48.2161 67.9554 48.2161C68.5935 48.5354 69.2316 48.8548 69.8697 48.8548C70.8268 48.8548 72.1029 49.1741 73.0601 49.1741C73.3791 49.1741 74.0172 49.4934 74.3362 49.4934C74.9743 49.4934 75.9314 49.8127 76.8885 49.8127C78.8028 49.8127 81.036 49.8127 82.9503 50.132C84.5455 50.4513 86.4597 49.8127 88.0549 50.132C89.6501 50.4513 91.2453 50.132 93.1595 50.132C93.4786 50.132 93.7976 50.132 94.4357 50.132C95.0738 50.132 95.7119 50.132 96.3499 50.132C94.7547 50.132 93.1595 49.4934 91.5643 49.8127C90.6072 50.132 89.6501 49.8127 89.012 49.8127C88.0549 49.4934 86.7787 49.8127 85.8216 49.8127C84.2264 49.8127 82.3122 49.8127 80.717 49.4934C80.398 49.4934 80.0789 49.1741 79.7599 48.8548C79.1218 48.2161 79.1218 47.5775 79.7599 47.2582C80.0789 46.9389 80.717 46.6196 81.3551 46.6196C82.6312 46.3003 83.5884 46.3003 84.8645 46.3003C85.1836 46.3003 85.5026 46.3003 85.8216 46.3003C87.0978 46.3003 88.693 46.3003 89.9691 46.6196C90.2882 46.6196 90.2882 46.6196 90.6072 46.6196C91.2453 46.6196 91.8834 46.6196 92.5215 46.6196C93.4786 46.6196 94.1167 46.6196 95.0738 46.9389C96.0309 47.2582 97.307 47.2582 98.2642 47.2582C100.178 47.5775 102.412 47.5775 104.326 48.2161C105.283 48.5354 106.24 48.5354 106.878 48.8548C107.516 49.1741 107.835 49.4934 108.154 49.8127C108.792 50.7706 108.473 52.0479 107.197 52.3672C106.559 52.6865 105.602 52.6865 104.645 53.0058C104.326 53.0058 104.007 53.0058 104.007 53.0058C102.731 53.6444 101.136 53.6444 99.8594 53.3251C99.5403 53.3251 99.2213 53.3251 98.9022 53.3251C97.9451 53.3251 96.669 53.6444 95.7119 53.6444C95.3928 53.6444 95.3928 53.6444 95.0738 53.6444C94.7547 53.6444 94.1167 53.6444 93.7976 53.6444C93.1595 53.6444 92.5215 53.9637 91.5643 53.9637C90.9263 53.9637 89.9691 53.9637 89.3311 53.9637C88.3739 53.6444 87.0978 53.9637 86.1407 53.9637C84.5455 53.9637 83.2693 53.9637 81.9932 53.9637C81.6741 53.9637 81.3551 53.9637 81.036 53.9637C79.7599 53.9637 78.1647 53.9637 76.8885 53.9637C76.2505 53.9637 75.2933 53.9637 74.6553 53.6444C74.3362 53.6444 74.0172 53.6444 73.6981 53.3251C72.741 53.3251 71.7839 53.0058 70.8268 53.0058C69.2316 52.6865 67.6364 52.0479 66.0412 51.7286C65.0841 51.4092 64.765 50.7706 64.446 49.8127C64.127 48.8548 64.446 47.8968 65.4031 47.2582C66.3602 46.3003 67.6364 45.6616 68.9125 45.023C70.1887 44.3844 71.7839 44.0651 73.0601 43.7458C73.3791 43.7458 73.6981 43.4265 74.0172 43.4265C74.9743 43.1071 75.9314 43.1071 76.8885 43.1071C77.5266 43.1071 78.4837 42.7878 79.1218 42.7878C80.398 42.7878 81.6741 42.4685 82.6312 42.4685C84.2264 42.4685 85.8216 42.4685 87.4168 42.4685C88.3739 42.4685 89.6501 42.4685 90.9263 42.7878C91.2453 42.7878 91.2453 42.7878 91.5643 42.7878C92.5215 42.7878 93.4786 42.7878 94.7547 42.7878C95.7119 42.7878 96.3499 43.1071 97.3071 43.1071C97.6261 43.1071 98.2642 43.1071 98.5832 43.1071C100.816 43.1071 103.05 43.7458 104.964 43.7458C106.24 44.3844 107.516 44.0651 108.792 44.3844C109.75 44.3844 111.026 44.7037 111.983 45.023C112.94 45.3423 114.216 45.6616 115.173 45.9809C116.768 46.6196 118.364 46.9389 119.959 47.2582C121.554 47.8968 123.468 48.2161 125.063 49.1741C125.702 49.8127 126.34 50.4513 126.659 51.0899C127.297 52.3672 126.659 53.6444 125.702 54.283C124.425 54.9217 123.149 55.5603 121.873 56.1989C120.916 56.5182 120.278 56.5182 119.321 56.8375C118.364 57.1569 117.726 57.4762 116.768 57.4762C116.449 57.4762 115.811 57.4762 115.492 57.7955C114.854 57.7955 114.535 58.1148 113.897 58.1148C113.578 58.1148 113.578 58.1148 113.259 58.1148C111.664 58.4341 110.388 58.7534 108.792 58.7534C107.835 58.7534 107.197 59.0727 106.24 59.0727C105.283 59.0727 104.326 59.0727 103.369 59.392C102.093 59.392 100.816 59.7113 99.5403 59.7113C98.2642 59.7113 96.669 60.0307 95.3928 60.0307C94.1167 60.0307 92.5215 60.35 91.2453 60.35C90.6072 60.35 90.2882 60.35 89.6501 60.0307C89.3311 60.0307 89.3311 60.0307 89.012 60.0307C88.3739 60.0307 87.7359 60.0307 87.0978 60.0307C86.1407 60.0307 85.5026 60.35 84.5455 60.0307C83.9074 60.0307 83.5884 59.7113 82.9503 60.0307C81.3551 60.0307 79.4408 60.0307 77.8456 59.7113C76.8885 59.7113 75.9314 59.392 74.9743 59.0727C74.6553 59.0727 74.6552 59.0727 74.3362 59.0727C74.0172 59.0727 74.0172 59.0727 73.6981 59.0727C71.4649 59.0727 69.5506 58.4341 67.3173 57.7955H66.9983C65.0841 57.4762 63.4889 56.8375 61.5746 56.1989C60.9366 55.8796 60.2985 55.5603 59.6604 55.241C59.3414 54.9217 58.7033 54.6024 58.0652 54.283C57.1081 53.6444 56.151 53.0058 55.5129 52.0479C54.8748 51.0899 54.2367 50.132 53.5986 48.8548C53.5986 48.5354 53.5986 48.2161 53.5986 47.8968C53.5986 45.9809 54.2367 44.3844 55.8319 43.1071C55.5129 42.1492 56.151 41.5106 56.789 40.5526C57.1081 39.5947 57.7462 38.6368 58.0652 37.6788C58.7033 35.763 59.3414 33.5278 59.3414 31.2926C59.3414 30.0154 59.9794 28.7381 60.2985 27.4609C60.9366 26.1836 60.9366 24.9064 61.2556 23.6291C61.5746 22.3519 61.8937 21.0746 61.8937 20.1167C61.8937 19.7974 61.8937 19.7974 61.8937 19.4781C61.2556 19.7974 60.6175 20.1167 59.9794 20.436C59.6604 20.7553 59.0223 20.7553 58.7033 21.0746C58.3842 21.0746 58.0652 21.0746 57.7462 20.7553C57.4271 20.436 57.7462 20.1167 57.7462 20.1167C57.7462 20.1167 57.7462 19.7974 58.0652 19.7974C59.3414 18.8395 60.2985 17.2429 61.5746 16.6043C61.8937 16.285 62.5318 16.285 62.8508 15.9657C63.1698 15.6463 63.4889 15.6463 63.8079 15.327C64.1269 15.327 64.446 15.327 64.765 15.0077C65.0841 15.6463 65.4031 16.285 64.765 17.2429V17.5622C64.765 17.8815 64.765 18.2008 64.446 18.2008C64.446 18.2008 64.446 18.2008 64.446 18.5201C64.765 19.4781 63.8079 20.1167 64.1269 21.0746C64.1269 21.3939 63.8079 21.3939 63.8079 21.7133C64.1269 22.0326 64.1269 22.6712 63.8079 22.9905C63.8079 23.3098 63.8079 23.3098 63.8079 23.6291C63.4889 24.9064 63.4889 26.1836 63.1698 27.4609C63.1698 28.0995 62.8508 28.4188 62.5318 29.0574C62.5318 29.3767 62.5318 29.6961 62.5318 29.6961C62.5318 30.0154 62.2127 30.3347 62.2127 30.654C62.2127 30.9733 61.8937 31.6119 61.8937 31.9312C61.8937 32.8892 61.5746 33.5278 61.5746 34.4857C61.2556 35.1244 60.9366 36.0823 60.9366 36.7209C60.6175 37.9982 59.9794 38.9561 59.6604 39.914C58.0652 39.914 58.0652 40.2333 58.0652 40.5526Z" fill="white"/>
<path d="M113.578 17.5624C114.216 18.2011 113.897 18.8397 113.578 19.4783C112.94 20.7556 112.302 22.0328 111.026 22.9907C111.026 22.9907 111.026 23.3101 110.707 23.3101C110.707 23.3101 110.707 23.31 110.707 23.6294C111.983 22.9907 113.578 22.3521 114.854 21.3942C114.216 22.6714 113.578 23.6294 112.302 24.268C111.345 25.2259 110.069 25.8645 108.793 26.1839C107.836 26.5032 107.197 27.1418 106.559 28.0997C106.24 29.6963 105.283 30.9735 104.645 31.9315C104.645 31.9315 104.645 32.2508 104.326 32.2508C105.602 32.2508 106.878 32.5701 108.155 32.5701C108.474 32.5701 109.112 32.2508 109.431 32.2508C109.75 32.2508 110.069 31.9315 110.388 31.9315C111.664 31.6122 112.621 30.9735 113.578 29.6963C113.897 29.377 114.216 29.0577 114.535 29.377C114.535 29.6963 114.535 30.0156 114.535 30.3349C113.897 31.6122 113.578 32.5701 112.621 33.528C111.983 34.1666 111.026 34.8053 110.069 35.1246C109.75 35.1246 109.112 35.4439 108.474 35.4439C107.836 35.4439 107.197 35.4439 106.559 35.4439C105.602 35.4439 104.326 35.1246 103.369 35.1246C102.731 35.1246 101.774 34.8053 101.136 34.8053C101.136 34.486 101.136 34.486 101.136 34.1666C101.455 33.8473 101.774 33.528 101.774 33.2087C102.093 32.8894 102.412 32.5701 102.412 32.2508C102.412 31.9315 103.05 31.6122 103.05 31.2928C103.369 30.9735 103.05 30.3349 103.688 30.3349C103.688 30.0156 104.007 29.6963 104.326 29.377C104.645 29.377 104.645 28.7383 104.964 28.7383C104.645 28.419 104.326 28.419 104.007 28.419C102.412 28.419 100.817 28.7383 99.2215 28.7383C98.2643 28.7383 97.3072 28.419 96.3501 28.419C95.712 28.419 95.0739 28.419 94.1168 28.0997C93.4787 28.0997 93.1597 28.419 92.8407 28.7383C92.2026 29.6963 91.2455 30.6542 90.6074 31.6122C89.9693 32.2508 89.3312 33.2087 89.0122 33.8473C89.0122 34.1666 89.0122 34.1666 88.6932 34.486H89.0122C89.9693 34.486 90.9264 34.486 91.8835 34.8053C92.2026 34.8053 92.5216 34.8053 92.8407 34.8053C93.4787 34.8053 94.1168 34.8053 94.7549 34.486C95.712 33.8473 96.9882 33.2087 97.9453 32.2508L98.2643 31.9315C98.5834 31.9315 98.9024 31.6122 98.9024 31.6122C98.9024 32.2508 98.5834 32.8894 98.5834 33.528C98.2643 33.8473 97.9453 34.1666 97.9453 34.486C97.6263 35.1246 96.9882 35.4439 96.6691 36.0825C96.3501 36.7211 95.712 36.7211 95.0739 37.0405C94.7549 37.3598 94.4359 37.3598 94.1168 37.3598C92.8407 37.9984 91.5645 37.9984 90.2884 37.3598C89.3312 37.0405 88.3741 37.0405 87.098 37.0405H86.7789C86.4599 37.0405 85.8218 37.0405 85.8218 36.7211C85.5028 36.4018 85.8218 36.0825 86.1408 35.4439C87.417 33.528 88.6932 31.9315 89.6503 30.0156C89.9693 29.377 90.2884 29.0577 90.6074 28.419C90.2884 28.419 89.9693 28.419 89.9693 28.419C89.3312 28.7383 89.0122 28.7383 88.6932 29.0577C87.736 29.6963 86.7789 30.0156 86.1408 30.6542C86.1408 30.6542 86.1408 30.6542 85.8218 30.6542C85.5028 30.3349 85.5028 30.0156 85.8218 30.0156C87.098 28.419 88.3741 26.8225 90.6074 26.1839C91.2455 26.1839 91.5645 25.8645 92.2026 25.5452C93.1597 25.5452 93.4787 24.9066 94.1168 24.268C94.7549 23.6294 95.0739 22.9907 95.712 22.3521C95.712 22.3521 95.712 22.0328 96.0311 22.0328C95.712 22.0328 95.393 22.0328 95.0739 22.0328C94.4359 22.0328 94.1168 22.0328 93.4787 22.0328C92.5216 22.0328 91.5645 22.0328 90.6074 22.3521C89.6503 22.6714 89.0122 23.31 88.3741 23.9487C88.0551 24.268 87.736 24.268 87.736 24.9066C87.417 24.9066 87.417 24.9066 87.098 24.9066C86.1408 25.2259 86.1408 24.9066 86.1408 24.5873C86.4599 23.9487 86.7789 23.31 87.417 22.6714C88.0551 22.3521 88.3741 21.7135 89.0122 21.3942C89.6503 20.7556 90.2884 20.7556 91.2455 20.4362C92.5216 20.4362 93.7978 20.1169 95.0739 20.1169H95.393C96.3501 19.7976 97.3072 19.7976 98.2643 19.7976C98.5834 19.7976 98.5834 19.7976 98.9024 20.1169C97.9453 22.0328 96.6691 23.6294 95.712 25.5452C96.3501 25.5452 97.3072 25.5452 97.9453 25.8645C100.179 26.1839 102.412 25.8645 104.645 25.8645C105.602 25.8645 106.559 25.5452 107.197 24.9066C107.516 24.9066 107.836 24.5873 107.836 24.268C108.474 23.31 109.431 22.3521 110.069 21.3942C110.069 21.3942 110.069 21.0749 110.388 20.7556C110.069 20.7556 109.75 20.7556 109.431 20.7556C108.793 20.7556 107.836 20.4362 107.197 20.4362C105.921 20.4362 104.964 20.7556 104.007 21.3942C103.369 21.7135 103.05 22.0328 102.731 22.3521C102.731 22.3521 102.412 22.6714 102.412 22.9907C101.774 22.9907 101.774 22.6714 101.774 22.0328C101.774 21.3942 102.412 20.7556 102.731 20.1169C102.731 19.7976 103.05 19.4783 103.369 19.4783C104.326 18.2011 105.921 17.8818 107.197 17.5624C108.155 17.2431 109.431 17.5624 110.388 17.8818C111.026 18.2011 111.664 17.8818 112.302 17.8818C112.621 17.8818 112.94 17.8818 113.578 17.5624Z" fill="white"/>
<path d="M126.021 29.696C125.702 29.696 125.702 30.0153 125.383 30.0153C124.745 30.654 123.787 31.2926 123.149 31.6119C122.83 31.6119 122.511 31.9312 122.511 32.2505C121.873 32.5698 121.235 32.2505 120.916 32.8891C120.278 32.8891 119.959 33.2085 119.321 33.2085C119.002 33.2085 118.683 33.2085 118.683 33.2085C117.726 32.5698 117.407 31.6119 117.726 30.654C117.726 30.0153 117.726 29.3767 118.045 29.0574C117.407 28.4188 118.045 28.0995 118.045 27.4608C118.045 26.8222 118.045 26.1836 118.364 25.545C118.364 25.2257 118.683 25.2257 118.683 24.9064C118.683 24.2677 119.002 23.6291 119.002 22.9905C119.002 22.3519 119.321 21.3939 119.64 20.7553C119.64 20.436 119.959 20.436 119.64 20.1167C119.64 19.7974 119.64 19.4781 119.959 19.1587C119.64 18.8394 119.64 18.8394 119.321 18.8394C118.683 19.1587 118.045 19.4781 117.726 19.7974C117.407 19.7974 117.088 20.1167 116.769 19.7974C116.45 19.4781 116.45 19.1587 116.769 18.8394C117.088 18.5201 117.088 18.2008 117.407 17.8815C118.045 17.2429 119.002 16.6043 119.64 15.9656C120.278 15.327 121.235 15.327 122.192 15.327C122.192 15.6463 122.511 15.9656 122.83 15.9656C122.83 16.2849 122.83 16.6043 122.83 16.9236C122.511 18.2008 122.192 19.4781 122.192 20.436C122.192 20.7553 121.873 21.3939 121.873 21.7132C121.235 23.9484 120.916 26.5029 120.278 28.7381C120.278 29.3767 120.278 29.696 120.278 30.654C120.597 30.654 120.916 30.654 120.916 30.3347C121.873 29.696 123.149 29.0574 124.107 28.0995C124.745 27.7802 125.064 27.1415 125.702 26.8222C126.021 26.5029 126.021 26.5029 126.021 26.1836C126.021 24.587 126.659 23.3098 126.978 21.7132C127.297 21.0746 127.297 20.436 127.297 19.7974C127.297 18.5201 127.616 17.2429 128.573 15.9656C128.892 15.6463 128.892 15.0077 129.211 14.6884C129.211 14.6884 129.211 14.3691 129.53 14.3691C130.168 14.0498 130.487 13.7304 131.125 13.4111C131.125 14.0498 131.444 14.3691 131.444 14.6884C131.125 15.0077 130.806 15.0077 131.125 15.6463V15.9656C130.487 16.6043 130.806 17.5622 130.487 18.2008C130.168 19.4781 129.849 20.7553 129.849 22.0325C129.849 22.6712 129.53 23.3098 129.53 23.9484C129.211 25.2257 129.211 26.5029 128.892 27.4608C128.573 28.4188 128.892 29.0574 128.892 29.696C128.892 30.654 129.211 31.9312 129.211 32.8891C129.211 33.8471 129.211 34.805 128.892 35.7629C128.573 36.7209 128.254 37.6788 127.616 38.6368C127.297 39.2754 126.659 39.914 126.021 40.5526C125.702 40.8719 125.383 40.8719 125.064 41.1912C125.064 41.5106 124.745 41.5106 124.426 41.5106C124.107 41.5106 123.787 41.5106 123.787 41.8299C123.787 42.1492 123.468 42.1492 123.149 42.1492C122.192 42.1492 120.916 42.4685 119.959 42.4685C119.002 42.4685 118.045 42.4685 117.407 42.1492C117.088 41.8299 116.45 41.8299 116.131 41.8299C115.173 41.5106 114.535 40.8719 114.216 39.914C114.216 39.2754 114.216 38.6368 114.854 37.9981C115.492 37.3595 116.131 37.3595 116.769 37.9981C118.045 39.5947 119.959 39.914 121.873 39.914C122.192 39.914 122.511 39.914 122.83 39.5947C123.468 39.2754 124.107 39.2754 124.745 38.9561H125.064C126.021 38.3174 126.978 37.3595 127.297 36.4016C127.616 35.4436 127.297 34.4857 127.616 33.5278C127.297 32.8891 127.616 32.2505 127.297 31.6119C126.978 30.9733 126.978 30.3347 126.978 30.0153C126.659 30.3347 126.659 30.0153 126.021 29.696Z" fill="white"/>
<path d="M176.429 74.7189C176.429 75.6768 176.11 76.3154 175.153 76.6347C174.196 76.954 172.92 77.2733 171.962 77.5927C169.091 78.2313 165.901 78.8699 163.029 79.8278C161.434 80.4665 159.839 81.1051 158.244 81.4244C155.372 82.3823 152.182 83.6596 148.992 84.2982C148.673 84.2982 148.354 84.2982 148.034 84.2982C147.396 84.2982 147.077 83.6596 147.396 83.3403C147.715 83.021 148.034 82.7016 148.354 82.3823C149.63 81.7437 150.906 80.7858 152.501 80.1472C154.734 79.1892 156.649 78.2313 158.882 77.2734C160.477 76.6347 161.753 76.3154 163.348 75.6768C165.901 74.7189 168.453 74.3995 171.005 73.7609C171.643 73.4416 172.601 73.4416 173.239 73.1223C173.877 72.803 174.515 72.803 175.472 73.1223C176.11 73.4416 176.429 74.0802 176.429 74.7189Z" fill="white"/>
<path d="M147.715 98.9868C150.587 99.3061 153.139 99.3061 155.691 99.6254C158.882 99.9448 162.072 100.583 165.263 100.903C165.901 100.903 166.22 101.222 166.539 101.541C167.496 102.499 167.177 104.096 165.901 104.415C165.582 104.415 164.944 104.734 164.306 104.415C162.072 104.096 159.839 103.776 157.287 103.457C155.691 103.138 153.777 102.819 152.182 102.819C149.311 102.18 146.439 101.861 143.887 100.903C143.568 100.903 142.93 100.583 142.611 100.264C142.292 99.9448 142.292 99.6254 142.611 99.3061C142.93 99.3061 143.249 98.9868 143.249 98.9868C145.163 98.9868 146.439 98.9868 147.715 98.9868Z" fill="white"/>
<path d="M160.796 37.3595C160.796 37.6789 160.477 38.3175 159.839 38.9561C158.882 39.914 157.925 40.872 156.967 41.8299C154.734 43.7458 152.501 45.981 150.587 48.2161C148.672 50.132 147.077 52.0479 144.844 53.9638C144.525 54.2831 144.206 54.6024 143.887 54.9217C143.568 54.9217 143.568 55.241 143.249 54.9217C142.93 54.9217 142.93 54.6024 142.93 54.2831C142.93 53.9638 142.93 53.6444 143.249 53.3251C144.844 50.7706 146.439 48.2161 148.353 45.981C149.63 44.0651 151.225 42.4685 152.82 40.872C154.415 39.2754 156.01 37.9982 157.606 36.4016C158.244 35.763 159.201 35.763 159.839 36.0823C160.477 36.0823 160.796 36.4016 160.796 37.3595Z" fill="white"/>
<path d="M11.4855 70.2485C12.4426 70.5678 13.3998 70.8872 14.0378 71.2065C15.314 71.5258 16.2711 71.8451 17.5473 72.1644C19.4615 72.4837 21.0567 73.1223 22.9709 74.0803C24.5661 74.7189 26.1613 75.6768 27.7565 76.3155C28.7137 76.9541 29.9898 77.2734 30.9469 77.5927C31.585 77.912 32.2231 78.5506 32.8612 78.87C33.1802 79.1893 33.1802 79.1893 33.1802 79.5086C32.8612 79.8279 32.8612 79.8279 32.5421 79.8279C31.266 79.5086 29.9898 79.8279 28.7137 79.5086C27.4375 79.1893 26.1613 78.87 24.8852 78.5506C24.2471 78.2313 23.609 78.2313 22.9709 77.912C22.0138 77.5927 21.0567 77.2734 20.0996 76.9541C18.5044 76.3155 17.2282 75.9961 15.633 75.6768C14.6759 75.3575 13.7188 75.0382 12.7617 74.7189C12.4426 74.7189 11.8046 74.3996 11.4855 74.3996C11.1665 74.0803 10.5284 74.0803 10.2094 73.761C9.89033 73.4417 9.57129 72.803 9.57129 71.8451C9.89033 71.2065 10.2094 70.5678 10.8474 70.5678C11.1665 70.5678 11.4855 70.5678 11.4855 70.2485C11.4855 70.5678 11.4855 70.5678 11.4855 70.2485Z" fill="white"/>
<path d="M18.1853 87.1724C20.0996 87.4917 22.0138 87.4917 23.928 87.811C24.5661 87.811 25.5232 87.811 26.4803 87.811C29.3517 87.4917 32.2231 87.1724 34.7754 87.1724C36.3706 87.1724 37.9658 87.4917 39.561 88.1303H39.88C40.199 88.1303 40.199 88.4496 40.199 88.7689C40.199 89.0882 39.88 89.4075 39.561 89.4075C39.2419 89.4075 38.9229 89.4075 38.2848 89.4075C36.0515 89.7269 34.1373 90.0462 31.904 90.3655C29.9898 90.6848 28.0755 91.0041 26.4803 91.3234C25.2042 91.6427 23.928 91.6427 22.9709 91.3234C21.0567 91.0041 19.4615 91.0041 17.5472 91.0041C17.2282 91.0041 16.9092 91.0041 16.9092 91.0041C15.952 91.0041 15.314 90.3655 15.314 89.4075C15.314 88.4496 15.952 87.811 16.5901 87.4917C16.9092 87.4917 17.5472 87.1724 18.1853 87.1724Z" fill="white"/>
<path d="M77.2076 154.227C76.8886 154.227 76.5695 154.227 76.2505 154.227C75.9314 154.227 75.6124 153.908 75.2934 153.589C74.9743 152.95 74.6553 151.992 74.6553 151.034C74.0172 151.034 73.6982 150.715 73.0601 150.715C71.7839 150.715 70.5078 150.715 69.2316 150.715C68.5935 150.715 67.9554 150.396 67.3174 150.396H66.9983C66.6793 150.396 66.3602 150.715 66.0412 150.396H65.7222C64.7651 150.396 64.127 150.076 63.8079 149.118C63.4889 148.799 63.8079 148.48 64.127 148.161C64.446 147.841 64.765 147.522 65.4031 147.203C65.7222 147.203 65.7222 146.883 66.0412 146.883C66.3602 146.564 66.6793 146.564 66.6793 146.245C66.9983 145.925 66.9983 145.606 67.6364 145.606C67.6364 145.606 67.6364 145.606 67.9554 145.606C68.5935 144.967 69.2316 144.329 69.8697 143.371C70.1887 143.052 70.5078 143.052 70.5078 142.732C71.1458 142.413 71.7839 141.774 72.103 141.455C72.741 140.497 73.3791 140.497 73.6982 140.497C74.6553 140.497 74.3362 140.497 74.6553 141.455C74.6553 141.774 74.9743 142.094 74.9743 142.094C74.9743 142.413 75.2934 142.413 75.2934 142.732C75.2934 143.371 75.6124 144.009 75.6124 144.648C75.9314 145.287 75.9314 145.925 75.9314 146.564C75.9314 146.883 75.9314 147.522 76.2505 147.841C76.2505 148.48 76.5695 149.118 76.5695 149.757C76.5695 150.076 76.8885 150.396 76.8885 150.715C77.2076 151.673 77.2076 152.95 77.2076 153.908C77.5266 153.908 77.5266 153.908 77.2076 154.227ZM74.3362 148.799C74.3362 148.48 74.3362 147.841 74.3362 147.522C74.3362 146.564 74.0172 145.925 74.0172 144.967C74.0172 143.69 73.3791 143.371 72.422 144.009L72.103 144.329C71.4649 144.329 71.1458 144.967 70.8268 145.287C70.5078 145.606 70.5078 145.925 70.1887 146.245C69.5506 146.883 69.2316 147.522 68.5935 148.161C69.2316 148.799 69.8697 148.161 70.5078 148.48C71.1458 148.799 71.7839 148.48 72.422 148.799C73.0601 148.799 73.6982 149.118 74.3362 148.799Z" fill="white"/>
<path d="M154.734 28.4187C154.734 29.3767 154.415 30.0153 153.777 30.6539C152.182 32.5698 150.587 34.1663 148.991 36.0822C147.396 37.9981 145.482 39.5946 143.887 41.1912C142.611 42.4684 141.335 43.4264 140.058 44.7036C139.739 45.0229 139.42 45.0229 139.101 44.7036C138.782 44.3843 138.782 44.065 138.782 43.7457C139.42 42.4685 140.058 41.5105 141.016 40.2333C142.292 38.6367 143.568 37.3595 144.844 35.7629C146.439 33.5277 148.353 31.6119 149.949 29.3767C150.268 28.738 150.906 28.4187 151.225 27.7801C151.544 27.4608 151.863 27.1415 152.182 26.8222C152.82 26.5029 153.458 26.1836 153.777 26.5029C154.415 27.1415 154.734 27.7801 154.734 28.4187Z" fill="white"/>
<path d="M164.943 49.4935C164.943 50.1321 164.624 50.7708 163.986 51.0901C163.348 51.4094 162.71 52.048 162.391 52.3673C160.477 53.6446 158.882 54.9218 156.968 56.1991C155.053 57.7956 153.458 59.3922 151.544 60.6694C150.906 61.308 149.949 61.9467 148.992 62.266L148.672 62.5853C148.353 62.5853 148.034 62.9046 147.715 62.5853C147.396 62.266 147.396 61.9467 147.715 61.6273C148.353 60.9887 148.672 60.0308 149.311 59.3922C150.906 57.4763 152.501 55.8797 154.096 54.2832C155.372 53.0059 156.967 52.048 158.244 50.7708C159.201 49.8128 160.477 49.1742 161.434 48.2163C162.072 47.897 162.391 47.5776 163.348 47.5776C164.305 47.8969 164.943 48.8549 164.943 49.4935Z" fill="white"/>
<path d="M106.878 152.95C106.24 152.95 105.602 152.95 104.964 152.631C104.645 152.631 104.326 152.312 104.007 151.992C103.688 151.673 103.05 151.673 102.731 151.354C102.093 150.715 101.774 150.076 101.455 149.118C101.136 148.48 101.136 147.841 101.455 147.203C101.455 146.883 101.455 146.564 101.455 146.245C101.455 145.606 101.774 145.287 102.093 144.967C102.731 143.69 103.369 142.094 104.326 140.816C104.645 140.178 104.964 139.858 105.602 139.539C105.921 139.539 106.24 139.22 106.559 139.22C106.878 139.22 107.197 139.22 107.197 139.22C107.516 139.22 108.154 139.539 108.473 139.539C109.112 139.858 109.75 140.497 110.069 141.136C110.388 141.455 110.388 141.774 110.707 142.094C111.026 142.413 111.345 142.732 111.345 143.371C111.983 144.329 112.302 145.287 112.302 146.245C112.621 147.203 112.302 148.48 111.664 149.438C111.664 149.757 111.345 149.757 111.345 150.076C111.026 150.715 110.388 151.673 109.75 151.992L109.431 152.312C109.431 152.631 108.154 152.95 106.878 152.95ZM104.007 147.203C104.007 148.799 104.007 149.118 105.283 149.757C105.921 150.396 106.878 150.396 107.835 150.396C109.112 150.076 109.75 149.438 110.388 148.48C110.707 147.841 111.026 146.883 110.707 146.245C110.388 145.287 110.069 144.648 109.75 143.69C109.112 143.051 108.473 142.413 107.516 142.094C107.197 142.094 106.878 142.094 106.559 142.094C106.24 142.413 105.602 142.732 105.283 143.371C105.283 144.009 104.964 144.329 104.645 144.967C104.326 145.606 104.007 146.564 104.007 147.203Z" fill="white"/>
<path d="M117.407 147.203C115.492 147.203 114.216 145.606 113.578 144.329C113.259 143.69 113.259 142.732 112.94 142.094C112.94 141.774 112.94 141.455 112.94 141.136C112.94 140.816 112.94 140.178 113.259 139.858C113.259 138.9 113.897 138.262 113.897 137.304C114.216 136.027 115.173 134.749 116.45 134.111C117.407 133.472 118.364 133.472 119.321 134.111C120.278 134.749 121.235 135.388 121.873 136.665C122.192 137.304 122.83 138.262 123.149 138.9C123.788 140.178 123.788 141.774 123.149 143.371C122.83 144.329 122.192 145.287 120.916 145.925C120.597 146.245 120.278 146.245 119.959 146.564C119.64 146.564 119.321 147.203 119.002 147.203C118.683 147.203 118.045 147.203 117.407 147.203ZM118.045 136.027C117.726 136.027 117.407 136.027 117.088 136.346C116.45 136.985 115.812 137.623 115.812 138.262C115.812 138.9 115.812 139.22 115.492 139.858C115.173 140.816 115.173 141.455 115.492 142.413C116.131 144.329 117.088 144.967 119.002 144.967C119.959 144.967 120.597 144.329 121.235 143.69C121.554 143.052 121.873 142.732 121.873 142.094C121.873 141.774 121.873 141.455 121.873 141.136C121.873 140.816 121.554 140.497 121.554 140.178C121.235 138.9 120.278 137.943 119.321 136.985C118.683 136.346 118.364 136.027 118.045 136.027Z" fill="white"/>
<path d="M80.0791 24.9064C79.122 25.2257 78.803 25.8644 77.8458 25.8644C77.8458 25.5451 78.1649 24.9064 78.4839 24.5871C79.122 23.9485 79.441 23.6292 80.0791 22.9906C80.7172 22.6712 81.3553 22.0326 81.9934 21.7133C82.9505 21.394 83.5886 21.7133 83.5886 22.9906C83.5886 23.9485 83.5886 24.9064 83.2695 25.8644C82.9505 27.4609 82.6314 29.3768 81.9934 30.9734C81.9934 31.2927 81.6743 31.9313 81.6743 32.2506C81.3553 33.2085 81.3553 33.8472 81.0362 34.8051C81.0362 35.1244 80.7172 35.1244 80.7172 35.4437C80.7172 35.763 80.7172 36.0823 80.7172 36.4016C81.3553 35.763 81.9934 35.1244 82.9505 35.4437C83.2695 36.0823 82.9505 36.4017 82.6314 37.0403C81.6743 37.9982 81.0362 38.9561 80.0791 39.5948C79.441 39.9141 79.122 40.5527 78.1649 39.9141C77.5268 39.5948 77.2078 38.9561 77.2078 38.6368C77.2078 38.3175 77.2078 37.6789 77.2078 37.3596C77.5268 35.1244 77.8458 32.8892 78.4839 30.654C78.803 29.3768 79.441 28.0995 79.7601 26.8223C80.0791 25.5451 80.0791 25.5451 80.0791 24.9064Z" fill="white"/>
<path d="M20.0995 102.499C18.8233 102.499 18.1853 101.86 17.8662 101.222C17.8662 100.264 18.1853 99.3059 19.1424 98.9866C20.0995 98.6673 21.0566 98.3479 22.0137 98.3479C23.2899 98.0286 24.566 98.0286 25.8422 97.7093C29.0326 97.0707 31.9039 96.7514 35.0943 96.1128C36.6895 95.7935 38.2847 95.7935 39.5609 95.7935H39.8799L40.199 96.1128C40.199 96.1128 40.199 96.4321 39.8799 96.7514C39.8799 96.7514 39.5609 96.7514 39.5609 97.0707C37.6467 97.7093 36.0515 98.348 34.1372 98.9866C32.223 99.6252 29.9897 99.9445 28.0755 100.583C26.4803 100.902 24.8851 101.541 22.9708 102.18C22.3328 102.18 21.0566 102.499 20.0995 102.499Z" fill="white"/>
<path d="M143.887 21.7134C143.887 22.6713 143.568 23.31 142.93 23.9486C141.654 25.5451 140.696 27.1417 139.42 28.4189C138.463 29.6962 137.506 30.9734 136.549 31.9314C135.273 33.5279 133.997 34.8052 132.401 36.0824C132.082 36.4017 131.763 36.7211 131.444 36.4017C131.125 36.0824 131.125 35.7631 131.125 35.4438C131.125 35.1245 131.444 34.4859 131.444 34.1666C132.72 31.9314 134.316 29.6962 135.592 27.461C136.868 25.5451 138.463 23.31 139.739 21.3941C140.058 20.7555 140.377 20.4362 141.015 20.1168C142.93 19.4782 143.887 20.4362 143.887 21.7134Z" fill="white"/>
<path d="M161.434 61.6274C162.391 61.6274 163.029 61.9468 163.348 62.9047C163.667 63.5433 163.348 64.5012 162.71 64.8206C162.072 65.4592 161.434 65.7785 160.796 66.0978C159.52 67.0557 158.563 67.6944 157.287 68.6523C155.053 70.2489 153.139 71.8454 150.587 72.8033C149.949 73.1227 149.311 73.442 148.672 73.7613C148.353 74.0806 148.034 74.0806 147.715 73.7613C147.396 73.442 147.396 73.1227 147.715 72.8033C148.034 72.1647 148.353 71.8454 148.992 71.2068C149.949 70.2489 150.906 69.2909 151.863 68.6523C153.458 67.3751 154.734 66.0978 156.329 64.8206C157.606 63.5433 159.201 62.5854 160.796 61.9468C160.796 61.9468 161.115 61.9468 161.434 61.6274Z" fill="white"/>
<path d="M159.839 92.281C157.925 92.281 155.691 92.281 153.777 92.281C151.544 92.281 149.311 91.9617 146.758 91.9617C146.439 91.9617 146.12 91.9617 145.801 91.9617C145.482 91.9617 145.163 91.6424 145.163 91.3231C145.163 91.0038 145.482 90.6844 145.801 90.6844C146.439 90.6844 147.396 90.3651 148.034 90.3651C152.501 90.0458 156.968 89.7265 161.115 89.4072C162.391 89.4072 163.986 89.0879 165.263 89.0879C165.582 89.0879 166.22 89.0879 166.539 89.0879C167.496 89.4072 167.815 90.0458 167.815 90.6844C167.815 91.3231 167.496 92.281 166.539 92.281C165.901 92.281 165.263 92.6003 164.624 92.6003C163.029 92.6003 161.115 92.281 159.52 92.281C160.477 92.281 160.158 92.281 159.839 92.281Z" fill="white"/>
<path d="M24.2472 42.7876C24.5662 42.7876 25.2043 43.1069 25.5233 43.4262C26.4804 44.3842 27.7566 45.3421 28.7137 46.3C29.3518 46.9387 30.3089 47.8966 30.947 48.8545C32.2232 50.4511 33.8184 52.3669 35.0945 53.9635C35.4136 54.2828 35.4136 54.2828 35.4136 54.6021C35.7326 54.9214 35.4136 55.5601 35.0945 55.8794C34.7755 56.1987 34.1374 56.1987 33.8184 55.8794C33.1803 55.5601 32.2232 54.9214 31.9041 54.6021C30.628 53.6442 29.6708 52.367 28.7137 51.409C27.1185 49.8125 25.5233 48.2159 23.6091 46.6193C22.971 46.3 22.3329 45.6614 22.3329 45.0228C22.0139 44.0648 22.652 42.7876 24.2472 42.7876Z" fill="white"/>
<path d="M28.0757 30.6538C28.7137 30.6538 29.3518 30.9731 29.6709 31.2924C31.2661 33.2082 32.5422 34.8048 34.1374 36.7207C35.4136 38.3172 36.6897 39.9138 37.9659 41.8297C38.923 43.1069 39.8801 44.3842 40.5182 45.9807C40.5182 46.3 40.8372 46.3 40.5182 46.6193C40.1992 46.9387 39.8801 46.6193 39.8801 46.6193C39.5611 46.3 39.242 45.9807 38.923 45.6614C37.9659 44.7035 36.6897 43.7455 35.7326 42.7876C34.1374 41.191 32.5422 39.5945 30.947 37.9979C29.6709 36.7207 28.3947 35.1241 27.1185 33.8469C26.4805 33.2083 26.4805 32.5696 26.4805 31.931C26.4805 31.2924 27.4376 30.3344 28.0757 30.6538Z" fill="white"/>
<path d="M62.8508 137.943C61.5747 137.624 60.6175 137.304 59.6604 136.985C59.0223 136.666 58.7033 136.346 58.7033 135.708C58.7033 135.069 58.7033 134.43 59.3414 134.111C59.6604 133.792 60.2985 134.111 60.6175 134.111C61.5747 134.43 62.5318 135.069 63.4889 135.388C64.446 136.027 65.0841 136.346 66.0412 136.666C66.6793 136.985 66.9983 137.304 67.6364 137.304C68.5935 137.304 68.9126 138.262 68.9126 139.22V139.539C68.5935 139.859 68.2745 139.859 67.9554 139.539C67.3174 139.22 66.3602 138.901 65.4031 138.582C64.765 138.262 64.7651 138.582 64.446 138.901C64.127 139.22 64.127 139.539 63.8079 139.859C63.4889 140.497 62.8508 141.136 62.5318 141.775C62.2127 142.733 61.5747 143.371 61.2556 144.329C60.6175 145.287 60.2985 145.926 59.6604 146.884C59.3414 147.203 59.0223 147.203 58.7033 147.203C58.3843 147.203 58.3843 146.884 58.0652 146.884C57.4271 146.564 57.4271 145.287 57.7462 144.648C58.3843 144.01 58.7033 143.052 59.0223 142.413C59.6604 141.136 60.6175 139.859 61.2556 138.582C62.2127 138.901 62.5318 138.262 62.8508 137.943Z" fill="white"/>
<path d="M19.1426 59.0728C19.1426 57.4763 20.4187 56.8377 21.6949 57.157C23.6091 57.7956 25.5234 58.7535 27.1186 60.0308C29.0328 61.308 30.628 62.5853 32.5422 64.1818C33.1803 64.8205 33.8184 65.4591 34.1374 66.0977L34.4565 66.417C34.7755 67.0556 34.4565 67.375 33.8184 67.375C33.4994 67.375 33.4994 67.375 33.4994 67.375C31.9042 66.417 30.309 65.7784 28.3947 64.8205C27.4376 64.1818 26.4805 63.5432 25.5234 62.9046C24.2472 62.266 22.9711 61.6273 21.6949 60.9887C21.0568 60.6694 20.7378 60.6694 20.0997 60.3501C19.4616 60.0308 19.1426 59.7115 19.1426 59.0728Z" fill="white"/>
<path d="M25.5233 116.23C24.5662 116.23 23.29 114.952 23.9281 113.675C24.2471 113.037 24.5662 112.717 25.2043 112.398C26.4804 111.44 28.0756 110.482 29.3518 109.524C30.3089 108.886 31.266 108.247 32.2231 107.608C32.8612 107.289 33.4993 106.65 34.1374 106.331C34.7754 106.012 35.4135 105.692 36.0516 105.692C36.6897 105.692 37.0087 106.012 36.6897 106.65C36.3706 106.97 36.0516 107.289 36.0516 107.608C35.4135 108.566 34.4564 109.205 33.8183 110.163C32.8612 111.121 32.2231 111.759 31.266 112.717C29.9898 113.675 28.3946 114.952 26.7995 115.91C26.1614 116.23 25.8423 116.23 25.5233 116.23Z" fill="white"/>
<path d="M97.6262 144.329C97.6262 145.287 97.3072 146.245 97.6262 147.203C97.6262 147.841 97.6262 148.799 97.6262 149.438C97.6262 150.396 97.9453 151.034 97.9453 151.992C97.9453 152.95 98.2643 154.228 97.9453 155.185C97.9453 155.505 97.9453 155.505 97.9453 155.824C97.6262 155.824 97.6262 156.143 97.3072 156.143C96.9882 155.824 96.6691 155.824 96.3501 155.505C96.031 155.185 96.031 154.866 96.031 154.866C95.712 154.228 95.712 153.27 95.712 152.312C95.712 151.354 95.712 150.396 95.712 149.438C95.393 148.161 95.393 146.883 95.393 145.287C94.4358 145.606 93.1597 145.925 92.2026 146.564C91.5645 146.883 90.2883 146.245 90.2883 145.606C90.2883 145.287 90.2883 144.967 90.6074 144.648C91.2454 144.329 92.2026 144.01 92.8406 143.69C93.7978 143.371 94.7549 143.371 95.712 142.732C96.3501 142.413 96.6691 142.413 97.3072 142.094C97.9453 141.774 98.9024 141.455 99.5405 141.455C100.179 141.136 101.136 141.774 101.136 142.413L100.817 142.732C99.8595 143.371 98.9024 143.69 97.6262 144.329Z" fill="white"/>
<path d="M85.1836 144.968C84.8645 145.926 84.8645 146.883 84.8645 147.841C84.8645 148.161 84.8645 148.799 84.8645 149.119C84.8645 150.077 84.8645 150.715 84.5455 151.673C84.5455 151.992 84.5455 152.631 84.2264 153.27C84.2264 153.908 84.2264 154.228 84.2264 154.866C84.2264 155.505 83.5884 155.824 82.9503 155.186C82.3122 154.547 81.9932 154.228 81.9932 153.27C81.9932 152.95 81.9932 152.312 82.3122 151.992C82.3122 151.354 82.6312 151.035 82.3122 150.396C82.3122 150.077 82.3122 149.438 82.3122 149.119C82.3122 147.841 82.6312 146.883 82.6312 145.606C82.6312 145.287 82.6312 145.287 82.6312 144.968C81.9932 144.968 81.3551 145.287 80.717 145.287C80.0789 145.287 79.4409 145.287 78.8028 145.287C77.8457 145.287 77.5266 144.329 77.5266 143.371C78.4837 143.371 79.4408 143.371 80.717 143.052C81.3551 143.052 81.9932 142.732 82.3122 142.732C83.2693 143.052 83.9074 142.413 84.8645 142.732C85.1836 142.732 85.1836 142.732 85.5026 142.732C86.1407 142.413 87.0978 142.732 87.7359 142.413C88.374 142.413 88.693 142.732 89.012 143.371C89.3311 143.69 89.012 144.01 88.693 144.329C88.0549 144.329 87.4168 144.648 86.7788 144.648C86.4597 144.648 85.8216 144.968 85.1836 144.968Z" fill="white"/>
<path d="M85.8218 138.581C85.8218 137.943 86.1408 137.623 86.1408 136.985C86.4599 136.027 87.0979 135.707 87.736 135.388C88.0551 135.388 89.0122 135.707 89.0122 136.027C89.3312 136.665 89.6503 137.304 89.6503 137.943C89.6503 138.262 89.9693 138.262 89.9693 138.581C90.2883 139.22 90.2883 139.859 89.9693 140.178C89.6503 140.816 89.0122 141.136 88.3741 140.816C87.417 140.816 86.7789 140.497 86.1408 139.859C86.1408 139.539 86.1408 138.901 85.8218 138.581Z" fill="white"/>
<path d="M100.497 137.624C100.497 139.22 99.5404 139.859 98.5832 139.22H98.2642C97.6261 139.22 97.3071 138.581 96.988 137.943C96.988 137.624 96.988 137.304 96.988 136.985C96.988 136.666 97.3071 136.346 97.3071 136.027C97.3071 135.388 97.6261 134.75 97.9452 134.111C98.2642 133.472 98.9023 133.472 99.5404 133.792C99.8594 134.111 99.8594 134.43 100.178 134.75C100.178 136.027 100.178 136.985 100.497 137.624Z" fill="white"/>
<path d="M75.2935 137.943C74.3364 137.623 74.0173 136.985 74.0173 136.027C74.0173 135.388 74.0173 134.75 74.0173 134.111C74.0173 133.472 74.3364 133.153 74.9744 132.834C75.6125 132.514 76.5696 132.834 76.8887 133.472C77.2077 134.111 77.2077 134.75 77.5268 135.388C77.8458 136.346 77.2077 136.666 76.5696 137.304C76.2506 137.623 75.6125 137.943 75.2935 137.943Z" fill="white"/>
<path d="M81.3552 19.478C81.9933 18.8394 82.3123 18.5201 82.6314 17.8814C82.9504 17.2428 82.9504 16.6042 82.3123 15.9656C81.9933 15.6463 81.9933 15.327 81.9933 15.0076C82.3123 14.6883 82.6314 14.0497 82.9504 13.7304C83.2695 13.4111 83.5885 13.0918 83.9075 12.7725C84.5456 13.0918 84.5456 13.4111 84.8647 14.0497C85.1837 14.6883 85.1837 15.0076 84.8647 15.6463C84.8647 15.9656 84.8647 15.9656 84.8647 16.2849C84.8647 16.6042 84.8647 16.9235 84.5456 16.9235V17.2428C84.5456 18.2008 83.5885 18.5201 82.9504 19.1587C82.6314 19.478 82.3123 19.478 81.6743 19.478C81.6743 19.7973 81.6743 19.7973 81.3552 19.478Z" fill="white"/>
<path d="M80.3982 136.346C80.3982 136.665 80.3982 136.985 80.3982 137.304C80.3982 138.262 79.7601 139.22 78.4839 138.9C78.1649 138.9 77.8458 138.581 77.5268 138.262C77.2078 137.623 77.2078 137.304 77.2078 136.665C77.2078 136.346 77.2078 136.027 77.5268 135.707C77.8458 135.388 77.8458 135.069 77.8458 134.749C77.8458 134.111 78.1649 134.111 78.803 133.792C79.122 133.792 79.7601 134.111 80.0791 134.43C80.3982 134.749 80.3982 135.388 80.3982 135.707C80.3982 135.707 80.3982 136.027 80.3982 136.346Z" fill="white"/>
<path d="M101.135 136.027C101.135 135.707 101.455 135.388 101.455 135.069C101.455 134.749 101.455 134.43 101.774 134.111C101.774 133.472 102.093 133.472 102.731 133.153C103.05 133.153 103.369 133.153 103.688 133.791C104.007 134.43 104.326 135.069 104.964 136.027C105.283 136.665 104.964 137.623 104.326 137.943C103.688 137.943 103.369 138.262 102.731 137.943C102.093 137.943 101.774 137.304 101.455 136.665C101.135 136.346 101.135 136.027 101.135 136.027Z" fill="white"/>
<path d="M104.964 134.43C104.964 134.111 104.964 133.792 104.964 133.472C105.283 132.514 105.921 132.195 106.878 132.514C107.516 132.834 107.835 133.153 107.835 133.792C107.835 134.43 107.835 135.069 107.835 135.707C107.835 136.346 106.559 136.665 105.921 136.346C105.283 136.027 104.964 135.707 104.964 135.069C104.964 135.069 104.964 135.069 104.964 134.43Z" fill="white"/>
</svg>
